<svg width="111" height="111" viewBox="0 0 111 111" fill="none" xmlns="http://www.w3.org/2000/svg">
<g filter="url(#filter0_d)">
<circle cx="55.5" cy="42.5" r="39.5" fill="white"/>
<path d="M55.5001 20L68.9234 38L55.5001 33L42.0767 38L55.5001 20Z" fill="#6D6D6D"/>
<path d="M37.8672 57V48.4688H40.791C41.7559 48.4688 42.4902 48.6621 42.9941 49.0488C43.498 49.4355 43.75 50.0117 43.75 50.7773C43.75 51.168 43.6445 51.5195 43.4336 51.832C43.2227 52.1445 42.9141 52.3867 42.5078 52.5586C42.9688 52.6836 43.3242 52.9199 43.5742 53.2676C43.8281 53.6113 43.9551 54.0254 43.9551 54.5098C43.9551 55.3105 43.6973 55.9258 43.1816 56.3555C42.6699 56.7852 41.9355 57 40.9785 57H37.8672ZM39.3496 53.1504V55.8164H40.9961C41.4609 55.8164 41.8242 55.7012 42.0859 55.4707C42.3477 55.2402 42.4785 54.9199 42.4785 54.5098C42.4785 53.623 42.0254 53.1699 41.1191 53.1504H39.3496ZM39.3496 52.0605H40.8027C41.2637 52.0605 41.623 51.957 41.8809 51.75C42.1426 51.5391 42.2734 51.2422 42.2734 50.8594C42.2734 50.4375 42.1523 50.1328 41.9102 49.9453C41.6719 49.7578 41.2988 49.6641 40.791 49.6641H39.3496V52.0605ZM46.0082 57V50.6602H48.5805C49.4477 50.6602 50.1078 50.8125 50.5609 51.1172C51.0141 51.418 51.2406 51.8516 51.2406 52.418C51.2406 52.7109 51.1488 52.9746 50.9652 53.209C50.7855 53.4395 50.518 53.6172 50.1625 53.7422C50.5766 53.8281 50.9047 54.002 51.1469 54.2637C51.3891 54.5254 51.5102 54.834 51.5102 55.1895C51.5102 55.7793 51.2914 56.2285 50.8539 56.5371C50.4203 56.8457 49.7953 57 48.9789 57H46.0082ZM47.432 54.2988V55.875H48.9906C49.7211 55.875 50.0863 55.6133 50.0863 55.0898C50.0863 54.5625 49.7152 54.2988 48.973 54.2988H47.432ZM47.432 53.2793H48.6039C49.4125 53.2793 49.8168 53.041 49.8168 52.5645C49.8168 52.0645 49.434 51.8066 48.6684 51.791H47.432V53.2793ZM56.1355 57.1172C55.2332 57.1172 54.5008 56.834 53.9383 56.2676C53.3797 55.6973 53.1004 54.9395 53.1004 53.9941V53.8184C53.1004 53.1855 53.2215 52.6211 53.4637 52.125C53.7098 51.625 54.0535 51.2363 54.4949 50.959C54.9363 50.6816 55.4285 50.543 55.9715 50.543C56.8348 50.543 57.5008 50.8184 57.9695 51.3691C58.4422 51.9199 58.6785 52.6992 58.6785 53.707V54.2812H54.5359C54.5789 54.8047 54.7527 55.2188 55.0574 55.5234C55.366 55.8281 55.7527 55.9805 56.2176 55.9805C56.8699 55.9805 57.4012 55.7168 57.8113 55.1895L58.5789 55.9219C58.325 56.3008 57.9852 56.5957 57.5594 56.8066C57.1375 57.0137 56.6629 57.1172 56.1355 57.1172ZM55.9656 51.6855C55.575 51.6855 55.2586 51.8223 55.0164 52.0957C54.7781 52.3691 54.6258 52.75 54.5594 53.2383H57.2723V53.1328C57.241 52.6562 57.1141 52.2969 56.8914 52.0547C56.6688 51.8086 56.3602 51.6855 55.9656 51.6855ZM65.9406 53.8945C65.9406 54.875 65.718 55.6582 65.2727 56.2441C64.8273 56.8262 64.2297 57.1172 63.4797 57.1172C62.7844 57.1172 62.2277 56.8887 61.8098 56.4316V59.4375H60.3859V50.6602H61.6984L61.757 51.3047C62.175 50.7969 62.7434 50.543 63.4621 50.543C64.2355 50.543 64.841 50.832 65.2785 51.4102C65.7199 51.9844 65.9406 52.7832 65.9406 53.8066V53.8945ZM64.5227 53.7715C64.5227 53.1387 64.3957 52.6367 64.1418 52.2656C63.8918 51.8945 63.5324 51.709 63.0637 51.709C62.4816 51.709 62.0637 51.9492 61.8098 52.4297V55.2422C62.0676 55.7344 62.4895 55.9805 63.0754 55.9805C63.5285 55.9805 63.882 55.7988 64.1359 55.4355C64.3937 55.0684 64.5227 54.5137 64.5227 53.7715ZM69.9332 52.7461L71.1402 50.6602H72.7223L70.7828 53.7832L72.7867 57H71.2164L69.9508 54.832L68.691 57H67.109L69.1129 53.7832L67.1793 50.6602H68.7496L69.9332 52.7461Z" fill="#565656"/>
</g>
<defs>
<filter id="filter0_d" x="0" y="0" width="111" height="111" filterUnits="userSpaceOnUse" color-interpolation-filters="sRGB">
<feFlood flood-opacity="0" result="BackgroundImageFix"/>
<feColorMatrix in="SourceAlpha" type="matrix" values="0 0 0 0 0 0 0 0 0 0 0 0 0 0 0 0 0 0 127 0"/>
<feOffset dy="13"/>
<feGaussianBlur stdDeviation="8"/>
<feColorMatrix type="matrix" values="0 0 0 0 0 0 0 0 0 0 0 0 0 0 0 0 0 0 0.2 0"/>
<feBlend mode="normal" in2="BackgroundImageFix" result="effect1_dropShadow"/>
<feBlend mode="normal" in="SourceGraphic" in2="effect1_dropShadow" result="shape"/>
</filter>
</defs>
</svg>
